# xmcd
#
# Track frame offsets:
#	150
#	26666
#	48723
#	73179
#	96397
#	115979
#	137958
#	156906
#	177689
#	199662
#	223272
#	244090
#	259086
#	276224
#	296403
#
# Disc length: 4303 seconds
#
# Revision: 0
# Processed by: cddbd v1.5.1PL0 Copyright (c) Steve Scherf et al.
# Submitted via: dBpowerAMP V4.0
#
DISCID=f910cd0f
DTITLE=游鸿明 - 下沙精选集
DYEAR=2001
DGENRE=pop
TTITLE0=下沙
TTITLE1=21 个人
TTITLE2=只是那个人
TTITLE3=五月的雪
TTITLE4=孟婆汤
TTITLE5=寻你
TTITLE6=七月一号
TTITLE7=恋上一个人
TTITLE8=一天一万年
TTITLE9=落单的候鸟
TTITLE10=去爱
TTITLE11=寂寞化石
TTITLE12=故事书
TTITLE13=爱我
TTITLE14=爱一回伤一回
EXTD=
EXTT0=
EXTT1=
EXTT2=
EXTT3=
EXTT4=
EXTT5=
EXTT6=
EXTT7=
EXTT8=
EXTT9=
EXTT10=
EXTT11=
EXTT12=
EXTT13=
EXTT14=
PLAYORDER=
